<svg width="512" height="512" viewBox="0 0 512 512" fill="none" xmlns="http://www.w3.org/2000/svg">
<path d="M246.454 20.2966C250.25 12.1977 261.75 12.1977 265.546 20.2967L331.834 161.728C333.329 164.917 336.312 167.149 339.788 167.681L488.813 190.488C497.299 191.786 500.763 202.153 494.768 208.307L386.269 319.68C383.931 322.08 382.869 325.448 383.408 328.757L408.923 485.491C410.339 494.193 401.116 500.701 393.412 496.435L261.102 423.171C257.927 421.413 254.073 421.413 250.898 423.171L118.588 496.435C110.884 500.701 101.66 494.193 103.077 485.491L128.592 328.757C129.131 325.448 128.069 322.08 125.731 319.68L17.2314 208.307C11.2365 202.153 14.7011 191.786 23.1866 190.488L172.212 167.681C175.688 167.149 178.671 164.917 180.165 161.728L246.454 20.2966Z" fill="#FFAE0A"/>
</svg>
